# xmcd
#
# Track frame offsets:
# 150
# 14188
# 26615
# 43190
# 58640
# 70842
# 100785
# 116371
# 129425
# 141333
# 155098
# 169808
# 188962
# 203411
# 220166
# 236196
# 250943
# 262962
# 280119
#
# Disc length: 3964 seconds
#
#
# Revision: 0
# Processed by: cddbd v1.5.2PL0 Copyright (c) Steve Scherf et al.
# Submitted via: FreeRIP 2.92 
#
DISCID=1a0f7a13
DTITLE=Various Artist - Outoppie Country Hits - CD 1
DYEAR=2006
DGENRE=Country
TTITLE0=Woman, Beautiful woman - Die Campbells
TTITLE1=Needles and Pins - Smokie
TTITLE2=Love is no crime - Freda Francis
TTITLE3=Queen of Hearts - Juice Newton
TTITLE4=Walk In The Room - Cheree
TTITLE5=CCR Medley
TTITLE6=Baby I miss You - Chris Norman
TTITLE7=Fall to Pieces - LeAnn Rimes
TTITLE8=Tulsa Time - Don Williams
TTITLE9=I can't Dance - Rocking Horse
TTITLE10=Achy Breaky Heart - B-Ray
TTITLE11=Islands in the Stream - Tony and Cheree
TTITLE12=Mamma don't let you babies grow up to be cowboys - Lance James
TTITLE13=For all the wrong reasons - Bellamy Brothers
TTITLE14=Don't Fly Too High - Joanna Field
TTITLE15=Blue Train - JJ Stephens
TTITLE16=Some Broken Hearts Never Mend - Country Sokkie Mix
TTITLE17=Red River Rosie - Clive Bruce
TTITLE18=Lief Vir Jou - Riana van Wyk
EXTD=
EXTT0=
EXTT1=
EXTT2=
EXTT3=
EXTT4=
EXTT5=
EXTT6=
EXTT7=
EXTT8=
EXTT9=
EXTT10=
EXTT11=
EXTT12=
EXTT13=
EXTT14=
EXTT15=
EXTT16=
EXTT17=
EXTT18=
PLAYORDER=
